HIERARCHY
ROOT joint_Root
{
	OFFSET 0.0 0.0 0.0
	CHANNELS 6 Xposition Yposition Zposition Zrotation Xrotation Yrotation 
	JOINT Hips
	{
		OFFSET -0.726466 93.3139 -2.00062
		CHANNELS 6 Xposition Yposition Zposition Zrotation Xrotation Yrotation 
		JOINT Spine
		{
			OFFSET 15.7357 0.0 0.0
			CHANNELS 6 Xposition Yposition Zposition Zrotation Xrotation Yrotation 
			JOINT Chest
			{
				OFFSET 8.98455 -0.406207 0.0
				CHANNELS 6 Xposition Yposition Zposition Zrotation Xrotation Yrotation 
				JOINT Neck
				{
					OFFSET 16.3773 0.0 0.0
					CHANNELS 6 Xposition Yposition Zposition Zrotation Xrotation Yrotation 
					JOINT Head
					{
						OFFSET 6.45672 0.0 0.0
						CHANNELS 6 Xposition Yposition Zposition Zrotation Xrotation Yrotation 
						End Site
						{
							OFFSET 0.0 0.0 0.0
						}
					}
				}
				JOINT Shoulder_L
				{
					OFFSET 12.9942 -0.242716 4.98039
					CHANNELS 6 Xposition Yposition Zposition Zrotation Xrotation Yrotation 
					JOINT UpperArm_L
					{
						OFFSET 5.34809 0.0 0.0
						CHANNELS 6 Xposition Yposition Zposition Zrotation Xrotation Yrotation 
						JOINT LowerArm_L
						{
							OFFSET 24.3286 1.87007e-05 0.0
							CHANNELS 6 Xposition Yposition Zposition Zrotation Xrotation Yrotation 
							JOINT Hand_L
							{
								OFFSET 22.2916 0.0 0.0
								CHANNELS 6 Xposition Yposition Zposition Zrotation Xrotation Yrotation 
								End Site
								{
									OFFSET 0.0 0.0 0.0
								}
							}
						}
					}
				}
				JOINT Shoulder_R
				{
					OFFSET 12.9945 -0.242716 -4.98039
					CHANNELS 6 Xposition Yposition Zposition Zrotation Xrotation Yrotation 
					JOINT UpperArm_R
					{
						OFFSET -5.34813 0.0 0.0
						CHANNELS 6 Xposition Yposition Zposition Zrotation Xrotation Yrotation 
						JOINT LowerArm_R
						{
							OFFSET -24.3289 0.000322201 0.0
							CHANNELS 6 Xposition Yposition Zposition Zrotation Xrotation Yrotation 
							JOINT Hand_R
							{
								OFFSET -22.2915 -0.000108084 0.0
								CHANNELS 6 Xposition Yposition Zposition Zrotation Xrotation Yrotation 
								End Site
								{
									OFFSET 0.0 0.0 0.0
								}
							}
						}
					}
				}
			}
		}
		JOINT UpperLeg_L
		{
			OFFSET -2.19248 -6.46944 0.0
			CHANNELS 6 Xposition Yposition Zposition Zrotation Xrotation Yrotation 
			JOINT LowerLeg_L
			{
				OFFSET 39.0811 0.0 -1.23785e-05
				CHANNELS 6 Xposition Yposition Zposition Zrotation Xrotation Yrotation 
				JOINT Foot_L
				{
					OFFSET 40.9854 0.0 -1.26872e-05
					CHANNELS 6 Xposition Yposition Zposition Zrotation Xrotation Yrotation 
					JOINT Toes_L
					{
						OFFSET 11.7543 0.0 0.0
						CHANNELS 6 Xposition Yposition Zposition Zrotation Xrotation Yrotation 
						End Site
						{
							OFFSET 0.0 0.0 0.0
						}
					}
				}
			}
		}
		JOINT UpperLeg_R
		{
			OFFSET -2.19251 6.46944 0.0
			CHANNELS 6 Xposition Yposition Zposition Zrotation Xrotation Yrotation 
			JOINT LowerLeg_R
			{
				OFFSET -39.0811 -0.00228153 -0.0401928
				CHANNELS 6 Xposition Yposition Zposition Zrotation Xrotation Yrotation 
				JOINT Foot_R
				{
					OFFSET -40.9854 0.0 0.0
					CHANNELS 6 Xposition Yposition Zposition Zrotation Xrotation Yrotation 
					JOINT Toes_R
					{
						OFFSET -11.7543 0.0 0.0
						CHANNELS 6 Xposition Yposition Zposition Zrotation Xrotation Yrotation 
						End Site
						{
							OFFSET 0.0 0.0 0.0
						}
					}
				}
			}
		}
	}
}
MOTION
Frames:	4
Frame Time:	0.0333333
0.000000 0.000000 0.000000 0.000000 0.000000 -0.000000 -0.660885 92.144400 -2.033650 87.681200 -0.662980 2.253590 15.735700 0.000005 -0.000001 85.044600 85.399200 -84.585900 8.984550 -0.406207 -0.000000 1.404820 -0.819912 0.926543 16.377300 -0.000001 -0.000001 3.296120 -2.137770 -0.191823 6.456720 -0.000001 -0.000000 -0.872861 -0.632405 3.144890 12.994200 -0.242716 4.980390 -89.732000 -0.826557 -72.031400 5.348090 -0.000007 -0.000001 -67.555600 38.552000 -13.614800 24.328600 0.000019 0.000005 3.354250 7.006390 -25.663300 22.291600 -0.000001 0.000005 5.068740 5.623870 -12.890400 12.994500 -0.242716 -4.980390 87.308800 7.267990 -69.617900 -5.348130 -0.000001 -0.000004 -64.725600 30.600700 -12.234200 -24.328900 0.000322 -0.000009 -1.400180 -3.077900 -24.459600 -22.291500 -0.000108 -0.000004 6.629760 5.558650 -9.121210 -2.192480 -6.469440 -0.000000 -168.696000 -15.986700 -3.833050 39.081100 -0.000007 -0.000012 -0.175603 0.465626 20.663300 40.985400 -0.000006 -0.000013 -6.307120 4.217990 -62.580100 11.754300 -0.000000 0.000003 -0.000147 -0.001429 -16.631900 -2.192510 6.469440 -0.000001 174.469000 21.377700 178.030000 -39.081100 -0.002282 -0.040193 -0.033337 0.108642 18.647100 -40.985400 0.000008 0.000006 -3.292900 3.840400 -62.244800 -11.754300 -0.000006 -0.000006 -0.004846 -0.059963 -19.012800
0.000000 0.000000 0.000000 0.000000 0.000000 -0.000000 -0.638822 92.142300 -2.016320 87.728300 -0.608345 2.267130 15.735700 0.000005 -0.000001 84.936800 85.378300 -84.497800 8.984550 -0.406207 -0.000000 1.444760 -0.839566 0.887797 16.377300 -0.000001 -0.000001 3.083960 -2.121230 -0.230286 6.456720 -0.000001 -0.000000 -1.056370 -0.633034 2.962740 12.994200 -0.242716 4.980390 -89.716500 -0.877481 -72.094200 5.348090 -0.000007 -0.000001 -67.704800 39.432600 -13.685900 24.328600 0.000019 0.000005 3.267290 6.658540 -26.212200 22.291600 -0.000001 0.000005 5.260420 5.626540 -13.081200 12.994500 -0.242716 -4.980390 87.308900 7.237090 -69.538500 -5.348130 -0.000001 -0.000004 -63.972500 30.134600 -12.819300 -24.328900 0.000322 -0.000009 -1.317440 -2.796810 -25.217700 -22.291500 -0.000108 -0.000004 7.304710 5.551250 -8.765650 -2.192480 -6.469440 -0.000000 -168.753000 -15.924400 -3.804520 39.081100 -0.000007 -0.000012 -0.175485 0.465849 20.641600 40.985400 -0.000006 -0.000013 -6.300250 4.212810 -62.587900 11.754300 -0.000000 0.000003 -0.000123 -0.001226 -16.624400 -2.192510 6.469440 -0.000001 174.396000 21.399500 178.047000 -39.081100 -0.002282 -0.040193 -0.033611 0.109175 18.691000 -40.985400 0.000008 0.000006 -3.271530 3.801230 -62.284900 -11.754300 -0.000006 -0.000006 -0.004952 -0.061004 -19.055200
0.000000 0.000000 0.000000 0.000000 0.000000 -0.000000 -0.616034 92.142300 -1.995770 87.728300 -0.572013 2.302170 15.735700 0.000005 -0.000001 84.713800 85.364600 -84.279400 8.984550 -0.406207 -0.000000 1.468910 -0.877543 0.879400 16.377300 -0.000001 -0.000001 2.947060 -2.100850 -0.262394 6.456720 -0.000001 -0.000000 -1.356180 -0.593129 2.743850 12.994200 -0.242716 4.980390 -89.689800 -0.961459 -72.118700 5.348090 -0.000007 -0.000001 -67.557700 40.846700 -13.750800 24.328600 0.000019 0.000005 3.291270 6.412670 -27.242900 22.291600 -0.000001 0.000005 6.112490 5.630940 -13.406900 12.994500 -0.242716 -4.980390 87.301700 7.231180 -69.473100 -5.348130 -0.000001 -0.000004 -62.864300 29.105700 -13.518300 -24.328900 0.000322 -0.000009 -1.346160 -2.706520 -26.439100 -22.291500 -0.000108 -0.000004 8.307040 5.545270 -8.484670 -2.192480 -6.469440 -0.000000 -168.761000 -15.929600 -3.779590 39.081100 -0.000007 -0.000012 -0.175185 0.464443 20.666400 40.985400 -0.000006 -0.000013 -6.271450 4.255930 -62.608200 11.754300 -0.000000 0.000003 -0.000138 -0.001349 -16.629000 -2.192510 6.469440 -0.000001 174.371000 21.365400 178.109000 -39.081100 -0.002282 -0.040193 -0.031989 0.104464 18.677000 -40.985400 0.000008 0.000006 -3.238240 3.751740 -62.298000 -11.754300 -0.000006 -0.000006 -0.004784 -0.059360 -18.988200
0.000000 0.000000 0.000000 0.000000 0.000000 -0.000000 -0.587411 92.143900 -1.990000 87.742400 -0.574959 2.305200 15.735700 0.000005 -0.000001 84.243600 85.350700 -83.830700 8.984550 -0.406207 -0.000000 1.489520 -0.954777 0.837372 16.377300 -0.000001 -0.000001 2.791990 -2.000120 -0.322352 6.456720 -0.000001 -0.000000 -1.632890 -0.511966 2.648040 12.994200 -0.242716 4.980390 -89.664900 -1.039920 -72.136400 5.348090 -0.000007 -0.000001 -66.410400 43.515000 -14.183300 24.328600 0.000019 0.000005 3.102920 5.633000 -28.911100 22.291600 -0.000001 0.000005 6.998300 5.637760 -13.939700 12.994500 -0.242716 -4.980390 87.307300 7.240260 -69.535500 -5.348130 -0.000001 -0.000004 -61.508600 27.285000 -14.426400 -24.328900 0.000322 -0.000009 -1.525660 -2.861970 -28.059900 -22.291500 -0.000108 -0.000004 8.791970 5.540710 -8.275730 -2.192480 -6.469440 -0.000000 -168.806000 -15.839000 -3.768690 39.081100 -0.000007 -0.000012 -0.174973 0.463931 20.664400 40.985400 -0.000006 -0.000013 -6.269940 4.151020 -62.632300 11.754300 -0.000000 0.000003 -0.000162 -0.001547 -16.636200 -2.192510 6.469440 -0.000001 174.358000 21.285200 178.117000 -39.081100 -0.002282 -0.040193 -0.029190 0.096220 18.670500 -40.985400 0.000008 0.000006 -3.246300 3.639640 -62.300400 -11.754300 -0.000006 -0.000006 -0.004937 -0.060854 -19.049100
